<mxfile host="Electron" modified="2023-04-18T06:26:21.882Z" agent="Mozilla/5.0 (Macintosh; Intel Mac OS X 10_15_7) AppleWebKit/537.36 (KHTML, like Gecko) draw.io/21.1.2 Chrome/106.0.5249.199 Electron/21.4.3 Safari/537.36" etag="lpZT7LOIct1thXiv7lxG" version="21.1.2" type="device">
  <diagram name="first" id="Gbo5e4VQ8HwpnUsIbm7H">
    <mxGraphModel dx="2334" dy="1979" grid="1" gridSize="10" guides="1" tooltips="1" connect="1" arrows="1" fold="1" page="1" pageScale="1" pageWidth="1100" pageHeight="850" math="0" shadow="0">
      <root>
        <object label="" aws_vpc_cidr="10.0.0.0/16" aws_public_subnet_1_cidr="10.0.1.0/24" aws_public_subnet_2_cidr="10.0.2.0/24" aws_private_subnet_1_cidr="10.0.4.0/24" aws_private_subnet_2_cidr="10.0.5.0/24" id="0">
          <mxCell />
        </object>
        <mxCell id="1" value="Network layer" style="locked=1;" parent="0" />
        <mxCell id="mb-uH8kiBHIfrfxMW9q3-2" value="Region : Seoul ( ap-northeast-2 )" style="points=[[0,0],[0.25,0],[0.5,0],[0.75,0],[1,0],[1,0.25],[1,0.5],[1,0.75],[1,1],[0.75,1],[0.5,1],[0.25,1],[0,1],[0,0.75],[0,0.5],[0,0.25]];outlineConnect=0;gradientColor=none;html=1;whiteSpace=wrap;fontSize=12;fontStyle=0;container=1;pointerEvents=0;collapsible=0;recursiveResize=0;shape=mxgraph.aws4.group;grIcon=mxgraph.aws4.group_region;strokeColor=#147EBA;fillColor=none;verticalAlign=top;align=left;spacingLeft=30;fontColor=#147EBA;" parent="1" vertex="1">
          <mxGeometry x="120" y="80" width="850" height="710" as="geometry" />
        </mxCell>
        <mxCell id="mb-uH8kiBHIfrfxMW9q3-3" value="VPC" style="points=[[0,0],[0.25,0],[0.5,0],[0.75,0],[1,0],[1,0.25],[1,0.5],[1,0.75],[1,1],[0.75,1],[0.5,1],[0.25,1],[0,1],[0,0.75],[0,0.5],[0,0.25]];outlineConnect=0;gradientColor=none;html=1;whiteSpace=wrap;fontSize=12;fontStyle=0;container=1;pointerEvents=0;collapsible=0;recursiveResize=0;shape=mxgraph.aws4.group;grIcon=mxgraph.aws4.group_vpc;strokeColor=#248814;fillColor=none;verticalAlign=top;align=left;spacingLeft=30;fontColor=#AAB7B8;dashed=0;" parent="mb-uH8kiBHIfrfxMW9q3-2" vertex="1">
          <mxGeometry x="60" y="70" width="740" height="600" as="geometry" />
        </mxCell>
        <mxCell id="mb-uH8kiBHIfrfxMW9q3-4" value="Availability Zone A" style="fillColor=none;strokeColor=#147EBA;dashed=1;verticalAlign=top;fontStyle=1;fontColor=#147EBA;whiteSpace=wrap;html=1;" parent="mb-uH8kiBHIfrfxMW9q3-3" vertex="1">
          <mxGeometry x="40" y="50" width="300" height="520" as="geometry" />
        </mxCell>
        <mxCell id="mb-uH8kiBHIfrfxMW9q3-12" value="Availability Zone B" style="fillColor=none;strokeColor=#147EBA;dashed=1;verticalAlign=top;fontStyle=1;fontColor=#147EBA;whiteSpace=wrap;html=1;" parent="mb-uH8kiBHIfrfxMW9q3-3" vertex="1">
          <mxGeometry x="410" y="50" width="300" height="520" as="geometry" />
        </mxCell>
        <mxCell id="mb-uH8kiBHIfrfxMW9q3-9" value="Public subnet 1" style="points=[[0,0],[0.25,0],[0.5,0],[0.75,0],[1,0],[1,0.25],[1,0.5],[1,0.75],[1,1],[0.75,1],[0.5,1],[0.25,1],[0,1],[0,0.75],[0,0.5],[0,0.25]];outlineConnect=0;gradientColor=none;html=1;whiteSpace=wrap;fontSize=12;fontStyle=0;container=1;pointerEvents=0;collapsible=0;recursiveResize=0;shape=mxgraph.aws4.group;grIcon=mxgraph.aws4.group_security_group;grStroke=0;strokeColor=#248814;fillColor=#E9F3E6;verticalAlign=top;align=left;spacingLeft=30;fontColor=#248814;dashed=0;" parent="mb-uH8kiBHIfrfxMW9q3-3" vertex="1">
          <mxGeometry x="60" y="100" width="260" height="210" as="geometry" />
        </mxCell>
        <mxCell id="mb-uH8kiBHIfrfxMW9q3-8" value="Private subnet 1" style="points=[[0,0],[0.25,0],[0.5,0],[0.75,0],[1,0],[1,0.25],[1,0.5],[1,0.75],[1,1],[0.75,1],[0.5,1],[0.25,1],[0,1],[0,0.75],[0,0.5],[0,0.25]];outlineConnect=0;gradientColor=none;html=1;whiteSpace=wrap;fontSize=12;fontStyle=0;container=1;pointerEvents=0;collapsible=0;recursiveResize=0;shape=mxgraph.aws4.group;grIcon=mxgraph.aws4.group_security_group;grStroke=0;strokeColor=#147EBA;fillColor=#E6F2F8;verticalAlign=top;align=left;spacingLeft=30;fontColor=#147EBA;dashed=0;" parent="mb-uH8kiBHIfrfxMW9q3-3" vertex="1">
          <mxGeometry x="60" y="330" width="260" height="220" as="geometry" />
        </mxCell>
        <mxCell id="mb-uH8kiBHIfrfxMW9q3-13" value="Public subnet 2" style="points=[[0,0],[0.25,0],[0.5,0],[0.75,0],[1,0],[1,0.25],[1,0.5],[1,0.75],[1,1],[0.75,1],[0.5,1],[0.25,1],[0,1],[0,0.75],[0,0.5],[0,0.25]];outlineConnect=0;gradientColor=none;html=1;whiteSpace=wrap;fontSize=12;fontStyle=0;container=1;pointerEvents=0;collapsible=0;recursiveResize=0;shape=mxgraph.aws4.group;grIcon=mxgraph.aws4.group_security_group;grStroke=0;strokeColor=#248814;fillColor=#E9F3E6;verticalAlign=top;align=left;spacingLeft=30;fontColor=#248814;dashed=0;" parent="mb-uH8kiBHIfrfxMW9q3-3" vertex="1">
          <mxGeometry x="430" y="100" width="260" height="210" as="geometry" />
        </mxCell>
        <mxCell id="mb-uH8kiBHIfrfxMW9q3-14" value="Private subnet 2" style="points=[[0,0],[0.25,0],[0.5,0],[0.75,0],[1,0],[1,0.25],[1,0.5],[1,0.75],[1,1],[0.75,1],[0.5,1],[0.25,1],[0,1],[0,0.75],[0,0.5],[0,0.25]];outlineConnect=0;gradientColor=none;html=1;whiteSpace=wrap;fontSize=12;fontStyle=0;container=1;pointerEvents=0;collapsible=0;recursiveResize=0;shape=mxgraph.aws4.group;grIcon=mxgraph.aws4.group_security_group;grStroke=0;strokeColor=#147EBA;fillColor=#E6F2F8;verticalAlign=top;align=left;spacingLeft=30;fontColor=#147EBA;dashed=0;" parent="mb-uH8kiBHIfrfxMW9q3-3" vertex="1">
          <mxGeometry x="430" y="330" width="260" height="220" as="geometry" />
        </mxCell>
        <mxCell id="FrHnQ4htE1Mah1qKq04Q-47" value="Region : N. Virginia ( us-east-1 )" style="points=[[0,0],[0.25,0],[0.5,0],[0.75,0],[1,0],[1,0.25],[1,0.5],[1,0.75],[1,1],[0.75,1],[0.5,1],[0.25,1],[0,1],[0,0.75],[0,0.5],[0,0.25]];outlineConnect=0;gradientColor=none;html=1;whiteSpace=wrap;fontSize=12;fontStyle=0;container=1;pointerEvents=0;collapsible=0;recursiveResize=0;shape=mxgraph.aws4.group;grIcon=mxgraph.aws4.group_region;strokeColor=#147EBA;fillColor=none;verticalAlign=top;align=left;spacingLeft=30;fontColor=#147EBA;shadow=0;fontFamily=Helvetica;" vertex="1" parent="1">
          <mxGeometry x="-110" y="80" width="210" height="280" as="geometry" />
        </mxCell>
        <mxCell id="mb-uH8kiBHIfrfxMW9q3-28" value="Network asso " parent="0" />
        <mxCell id="mb-uH8kiBHIfrfxMW9q3-42" value="" style="group" parent="mb-uH8kiBHIfrfxMW9q3-28" vertex="1" connectable="0">
          <mxGeometry x="525" y="123" width="50" height="50" as="geometry" />
        </mxCell>
        <mxCell id="mb-uH8kiBHIfrfxMW9q3-43" value="" style="rounded=0;whiteSpace=wrap;html=1;strokeColor=none;" parent="mb-uH8kiBHIfrfxMW9q3-42" vertex="1">
          <mxGeometry width="50" height="50" as="geometry" />
        </mxCell>
        <mxCell id="mb-uH8kiBHIfrfxMW9q3-44" value="" style="sketch=0;outlineConnect=0;fontColor=#232F3E;gradientColor=none;fillColor=#4D27AA;strokeColor=none;dashed=0;verticalLabelPosition=bottom;verticalAlign=top;align=center;html=1;fontSize=12;fontStyle=0;aspect=fixed;pointerEvents=1;shape=mxgraph.aws4.internet_gateway;" parent="mb-uH8kiBHIfrfxMW9q3-42" vertex="1">
          <mxGeometry width="50" height="50" as="geometry" />
        </mxCell>
        <mxCell id="mb-uH8kiBHIfrfxMW9q3-48" style="edgeStyle=orthogonalEdgeStyle;rounded=0;orthogonalLoop=1;jettySize=auto;html=1;startArrow=blockThin;startFill=1;" parent="mb-uH8kiBHIfrfxMW9q3-28" source="mb-uH8kiBHIfrfxMW9q3-45" target="mb-uH8kiBHIfrfxMW9q3-44" edge="1">
          <mxGeometry relative="1" as="geometry">
            <Array as="points">
              <mxPoint x="530" y="340" />
            </Array>
          </mxGeometry>
        </mxCell>
        <mxCell id="mb-uH8kiBHIfrfxMW9q3-45" value="EC2 Instances" style="sketch=0;outlineConnect=0;fontColor=#232F3E;gradientColor=none;fillColor=#D45B07;strokeColor=none;dashed=0;verticalLabelPosition=bottom;verticalAlign=top;align=center;html=1;fontSize=12;fontStyle=0;aspect=fixed;pointerEvents=1;shape=mxgraph.aws4.instances;" parent="mb-uH8kiBHIfrfxMW9q3-28" vertex="1">
          <mxGeometry x="350" y="320" width="48" height="48" as="geometry" />
        </mxCell>
        <mxCell id="mb-uH8kiBHIfrfxMW9q3-46" value="NAT Gateway" style="sketch=0;outlineConnect=0;fontColor=#232F3E;gradientColor=none;fillColor=#4D27AA;strokeColor=none;dashed=0;verticalLabelPosition=bottom;verticalAlign=top;align=center;html=1;fontSize=12;fontStyle=0;aspect=fixed;pointerEvents=1;shape=mxgraph.aws4.nat_gateway;" parent="mb-uH8kiBHIfrfxMW9q3-28" vertex="1">
          <mxGeometry x="420" y="375" width="50" height="50" as="geometry" />
        </mxCell>
        <mxCell id="mb-uH8kiBHIfrfxMW9q3-47" style="edgeStyle=orthogonalEdgeStyle;rounded=0;orthogonalLoop=1;jettySize=auto;html=1;" parent="mb-uH8kiBHIfrfxMW9q3-28" source="mb-uH8kiBHIfrfxMW9q3-46" target="mb-uH8kiBHIfrfxMW9q3-44" edge="1">
          <mxGeometry relative="1" as="geometry">
            <Array as="points">
              <mxPoint x="540" y="390" />
            </Array>
          </mxGeometry>
        </mxCell>
        <mxCell id="mb-uH8kiBHIfrfxMW9q3-50" style="edgeStyle=orthogonalEdgeStyle;rounded=0;orthogonalLoop=1;jettySize=auto;html=1;" parent="mb-uH8kiBHIfrfxMW9q3-28" source="mb-uH8kiBHIfrfxMW9q3-49" edge="1">
          <mxGeometry relative="1" as="geometry">
            <mxPoint x="470" y="400" as="targetPoint" />
            <Array as="points">
              <mxPoint x="540" y="604" />
              <mxPoint x="540" y="400" />
            </Array>
          </mxGeometry>
        </mxCell>
        <mxCell id="mb-uH8kiBHIfrfxMW9q3-49" value="" style="sketch=0;outlineConnect=0;fontColor=#232F3E;gradientColor=none;fillColor=#D45B07;strokeColor=none;dashed=0;verticalLabelPosition=bottom;verticalAlign=top;align=center;html=1;fontSize=12;fontStyle=0;aspect=fixed;pointerEvents=1;shape=mxgraph.aws4.instances;" parent="mb-uH8kiBHIfrfxMW9q3-28" vertex="1">
          <mxGeometry x="340" y="580" width="48" height="48" as="geometry" />
        </mxCell>
        <mxCell id="FrHnQ4htE1Mah1qKq04Q-1" style="edgeStyle=orthogonalEdgeStyle;rounded=0;orthogonalLoop=1;jettySize=auto;html=1;entryX=1;entryY=0.5;entryDx=0;entryDy=0;fillColor=#d5e8d4;strokeColor=#82b366;fontStyle=1" edge="1" parent="mb-uH8kiBHIfrfxMW9q3-28" source="mb-uH8kiBHIfrfxMW9q3-51" target="mb-uH8kiBHIfrfxMW9q3-58">
          <mxGeometry relative="1" as="geometry" />
        </mxCell>
        <mxCell id="mb-uH8kiBHIfrfxMW9q3-51" value="" style="sketch=0;outlineConnect=0;fontColor=#232F3E;gradientColor=none;fillColor=#4D27AA;strokeColor=none;dashed=0;verticalLabelPosition=bottom;verticalAlign=top;align=center;html=1;fontSize=12;fontStyle=0;aspect=fixed;pointerEvents=1;shape=mxgraph.aws4.route_table;" parent="mb-uH8kiBHIfrfxMW9q3-28" vertex="1">
          <mxGeometry x="230" y="425" width="50" height="48.72" as="geometry" />
        </mxCell>
        <mxCell id="FrHnQ4htE1Mah1qKq04Q-43" style="edgeStyle=orthogonalEdgeStyle;rounded=0;orthogonalLoop=1;jettySize=auto;html=1;fontFamily=Helvetica;fontSize=12;fontColor=rgb(0, 0, 0);strokeColor=#5587C3;" edge="1" parent="mb-uH8kiBHIfrfxMW9q3-28" source="mb-uH8kiBHIfrfxMW9q3-52" target="FrHnQ4htE1Mah1qKq04Q-20">
          <mxGeometry relative="1" as="geometry" />
        </mxCell>
        <mxCell id="mb-uH8kiBHIfrfxMW9q3-52" value="" style="sketch=0;outlineConnect=0;fontColor=#232F3E;gradientColor=none;fillColor=#4D27AA;strokeColor=none;dashed=0;verticalLabelPosition=bottom;verticalAlign=top;align=center;html=1;fontSize=12;fontStyle=0;aspect=fixed;pointerEvents=1;shape=mxgraph.aws4.route_table;" parent="mb-uH8kiBHIfrfxMW9q3-28" vertex="1">
          <mxGeometry x="230" y="660" width="50" height="48.72" as="geometry" />
        </mxCell>
        <mxCell id="mb-uH8kiBHIfrfxMW9q3-53" value="Assets" style="childLayout=tableLayout;recursiveResize=0;strokeColor=#98bf21;fillColor=#A7C942;shadow=1;" parent="mb-uH8kiBHIfrfxMW9q3-28" vertex="1">
          <mxGeometry x="-120" y="400" width="187" height="96" as="geometry" />
        </mxCell>
        <mxCell id="mb-uH8kiBHIfrfxMW9q3-54" style="shape=tableRow;horizontal=0;startSize=0;swimlaneHead=0;swimlaneBody=0;top=0;left=0;bottom=0;right=0;dropTarget=0;collapsible=0;recursiveResize=0;expand=0;fontStyle=0;strokeColor=inherit;fillColor=#ffffff;" parent="mb-uH8kiBHIfrfxMW9q3-53" vertex="1">
          <mxGeometry width="187" height="33" as="geometry" />
        </mxCell>
        <mxCell id="mb-uH8kiBHIfrfxMW9q3-55" value="CIDR Range" style="connectable=0;recursiveResize=0;strokeColor=inherit;fillColor=#A7C942;align=center;fontStyle=1;fontColor=#FFFFFF;html=1;" parent="mb-uH8kiBHIfrfxMW9q3-54" vertex="1">
          <mxGeometry width="93" height="33" as="geometry">
            <mxRectangle width="93" height="33" as="alternateBounds" />
          </mxGeometry>
        </mxCell>
        <mxCell id="mb-uH8kiBHIfrfxMW9q3-56" value="Next Hop" style="connectable=0;recursiveResize=0;strokeColor=inherit;fillColor=#A7C942;align=center;fontStyle=1;fontColor=#FFFFFF;html=1;" parent="mb-uH8kiBHIfrfxMW9q3-54" vertex="1">
          <mxGeometry x="93" width="94" height="33" as="geometry">
            <mxRectangle width="94" height="33" as="alternateBounds" />
          </mxGeometry>
        </mxCell>
        <mxCell id="mb-uH8kiBHIfrfxMW9q3-58" value="" style="shape=tableRow;horizontal=0;startSize=0;swimlaneHead=0;swimlaneBody=0;top=0;left=0;bottom=0;right=0;dropTarget=0;collapsible=0;recursiveResize=0;expand=0;fontStyle=0;strokeColor=inherit;fillColor=#ffffff;" parent="mb-uH8kiBHIfrfxMW9q3-53" vertex="1">
          <mxGeometry y="33" width="187" height="32" as="geometry" />
        </mxCell>
        <object placeholders="1" placeholder="aws_vpc_cidr" id="mb-uH8kiBHIfrfxMW9q3-59">
          <mxCell style="connectable=0;recursiveResize=0;strokeColor=inherit;fillColor=inherit;align=center;whiteSpace=wrap;html=1;" parent="mb-uH8kiBHIfrfxMW9q3-58" vertex="1">
            <mxGeometry width="93" height="32" as="geometry">
              <mxRectangle width="93" height="32" as="alternateBounds" />
            </mxGeometry>
          </mxCell>
        </object>
        <mxCell id="mb-uH8kiBHIfrfxMW9q3-60" value="local" style="connectable=0;recursiveResize=0;strokeColor=inherit;fillColor=inherit;align=center;whiteSpace=wrap;html=1;" parent="mb-uH8kiBHIfrfxMW9q3-58" vertex="1">
          <mxGeometry x="93" width="94" height="32" as="geometry">
            <mxRectangle width="94" height="32" as="alternateBounds" />
          </mxGeometry>
        </mxCell>
        <mxCell id="mb-uH8kiBHIfrfxMW9q3-62" value="" style="shape=tableRow;horizontal=0;startSize=0;swimlaneHead=0;swimlaneBody=0;top=0;left=0;bottom=0;right=0;dropTarget=0;collapsible=0;recursiveResize=0;expand=0;fontStyle=1;strokeColor=inherit;fillColor=#EAF2D3;" parent="mb-uH8kiBHIfrfxMW9q3-53" vertex="1">
          <mxGeometry y="65" width="187" height="31" as="geometry" />
        </mxCell>
        <mxCell id="mb-uH8kiBHIfrfxMW9q3-63" value="0.0.0.0/0&amp;nbsp;" style="connectable=0;recursiveResize=0;strokeColor=inherit;fillColor=inherit;whiteSpace=wrap;html=1;" parent="mb-uH8kiBHIfrfxMW9q3-62" vertex="1">
          <mxGeometry width="93" height="31" as="geometry">
            <mxRectangle width="93" height="31" as="alternateBounds" />
          </mxGeometry>
        </mxCell>
        <mxCell id="mb-uH8kiBHIfrfxMW9q3-64" value="IGW" style="connectable=0;recursiveResize=0;strokeColor=inherit;fillColor=inherit;whiteSpace=wrap;html=1;" parent="mb-uH8kiBHIfrfxMW9q3-62" vertex="1">
          <mxGeometry x="93" width="94" height="31" as="geometry">
            <mxRectangle width="94" height="31" as="alternateBounds" />
          </mxGeometry>
        </mxCell>
        <mxCell id="FrHnQ4htE1Mah1qKq04Q-15" value="Assets" style="childLayout=tableLayout;recursiveResize=0;strokeColor=#006EAF;fillColor=#1ba1e2;shadow=1;fillStyle=hatch;fontColor=#ffffff;" vertex="1" parent="mb-uH8kiBHIfrfxMW9q3-28">
          <mxGeometry x="-120" y="636" width="187" height="96" as="geometry" />
        </mxCell>
        <mxCell id="FrHnQ4htE1Mah1qKq04Q-16" style="shape=tableRow;horizontal=0;startSize=0;swimlaneHead=0;swimlaneBody=0;top=0;left=0;bottom=0;right=0;dropTarget=0;collapsible=0;recursiveResize=0;expand=0;fontStyle=0;strokeColor=inherit;fillColor=#5587c3;" vertex="1" parent="FrHnQ4htE1Mah1qKq04Q-15">
          <mxGeometry width="187" height="33" as="geometry" />
        </mxCell>
        <mxCell id="FrHnQ4htE1Mah1qKq04Q-17" value="CIDR Range" style="connectable=0;recursiveResize=0;strokeColor=inherit;fillColor=#5587c3;align=center;fontStyle=1;fontColor=#FFFFFF;html=1;" vertex="1" parent="FrHnQ4htE1Mah1qKq04Q-16">
          <mxGeometry width="93" height="33" as="geometry">
            <mxRectangle width="93" height="33" as="alternateBounds" />
          </mxGeometry>
        </mxCell>
        <mxCell id="FrHnQ4htE1Mah1qKq04Q-18" value="Next Hop" style="connectable=0;recursiveResize=0;strokeColor=inherit;fillColor=#5587c3;align=center;fontStyle=1;fontColor=#FFFFFF;html=1;" vertex="1" parent="FrHnQ4htE1Mah1qKq04Q-16">
          <mxGeometry x="93" width="94" height="33" as="geometry">
            <mxRectangle width="94" height="33" as="alternateBounds" />
          </mxGeometry>
        </mxCell>
        <mxCell id="FrHnQ4htE1Mah1qKq04Q-20" value="" style="shape=tableRow;horizontal=0;startSize=0;swimlaneHead=0;swimlaneBody=0;top=0;left=0;bottom=0;right=0;dropTarget=0;collapsible=0;recursiveResize=0;expand=0;fontStyle=0;strokeColor=inherit;fillColor=#ffffff;" vertex="1" parent="FrHnQ4htE1Mah1qKq04Q-15">
          <mxGeometry y="33" width="187" height="32" as="geometry" />
        </mxCell>
        <object placeholders="1" placeholder="aws_vpc_cidr" id="FrHnQ4htE1Mah1qKq04Q-21">
          <mxCell style="connectable=0;recursiveResize=0;strokeColor=inherit;fillColor=inherit;align=center;whiteSpace=wrap;html=1;" vertex="1" parent="FrHnQ4htE1Mah1qKq04Q-20">
            <mxGeometry width="93" height="32" as="geometry">
              <mxRectangle width="93" height="32" as="alternateBounds" />
            </mxGeometry>
          </mxCell>
        </object>
        <mxCell id="FrHnQ4htE1Mah1qKq04Q-22" value="local" style="connectable=0;recursiveResize=0;strokeColor=inherit;fillColor=inherit;align=center;whiteSpace=wrap;html=1;" vertex="1" parent="FrHnQ4htE1Mah1qKq04Q-20">
          <mxGeometry x="93" width="94" height="32" as="geometry">
            <mxRectangle width="94" height="32" as="alternateBounds" />
          </mxGeometry>
        </mxCell>
        <mxCell id="FrHnQ4htE1Mah1qKq04Q-24" value="" style="shape=tableRow;horizontal=0;startSize=0;swimlaneHead=0;swimlaneBody=0;top=0;left=0;bottom=0;right=0;dropTarget=0;collapsible=0;recursiveResize=0;expand=0;fontStyle=1;strokeColor=#6c8ebf;fillColor=#dae8fc;" vertex="1" parent="FrHnQ4htE1Mah1qKq04Q-15">
          <mxGeometry y="65" width="187" height="31" as="geometry" />
        </mxCell>
        <mxCell id="FrHnQ4htE1Mah1qKq04Q-25" value="0.0.0.0/0" style="connectable=0;recursiveResize=0;strokeColor=#6c8ebf;fillColor=#dae8fc;whiteSpace=wrap;html=1;" vertex="1" parent="FrHnQ4htE1Mah1qKq04Q-24">
          <mxGeometry width="93" height="31" as="geometry">
            <mxRectangle width="93" height="31" as="alternateBounds" />
          </mxGeometry>
        </mxCell>
        <mxCell id="FrHnQ4htE1Mah1qKq04Q-26" value="NAT Gateway" style="connectable=0;recursiveResize=0;strokeColor=#6c8ebf;fillColor=#dae8fc;whiteSpace=wrap;html=1;" vertex="1" parent="FrHnQ4htE1Mah1qKq04Q-24">
          <mxGeometry x="93" width="94" height="31" as="geometry">
            <mxRectangle width="94" height="31" as="alternateBounds" />
          </mxGeometry>
        </mxCell>
        <mxCell id="FrHnQ4htE1Mah1qKq04Q-44" value="RouteTable 의 경우 subnetAssociations" style="text;strokeColor=none;fillColor=none;align=left;verticalAlign=middle;spacingLeft=4;spacingRight=4;overflow=hidden;points=[[0,0.5],[1,0.5]];portConstraint=eastwest;rotatable=0;whiteSpace=wrap;html=1;fontSize=12;fontFamily=Helvetica;fontColor=rgb(0, 0, 0);" vertex="1" parent="mb-uH8kiBHIfrfxMW9q3-28">
          <mxGeometry x="-300" y="434.36" width="150" height="30" as="geometry" />
        </mxCell>
        <mxCell id="FrHnQ4htE1Mah1qKq04Q-58" value="" style="sketch=0;aspect=fixed;pointerEvents=1;shadow=0;dashed=0;html=1;strokeColor=none;labelPosition=center;verticalLabelPosition=bottom;verticalAlign=top;align=center;fillColor=#000000;shape=mxgraph.mscae.enterprise.internet_hollow;fontFamily=Helvetica;fontSize=12;fontColor=rgb(0, 0, 0);fontStyle=1" vertex="1" parent="mb-uH8kiBHIfrfxMW9q3-28">
          <mxGeometry x="510" width="80.65" height="50" as="geometry" />
        </mxCell>
        <mxCell id="FrHnQ4htE1Mah1qKq04Q-59" style="edgeStyle=orthogonalEdgeStyle;rounded=0;orthogonalLoop=1;jettySize=auto;html=1;fontFamily=Helvetica;fontSize=12;fontColor=rgb(0, 0, 0);" edge="1" parent="mb-uH8kiBHIfrfxMW9q3-28" source="mb-uH8kiBHIfrfxMW9q3-44" target="FrHnQ4htE1Mah1qKq04Q-58">
          <mxGeometry relative="1" as="geometry" />
        </mxCell>
        <mxCell id="FrHnQ4htE1Mah1qKq04Q-60" value="Internet" style="text;html=1;align=center;verticalAlign=middle;resizable=0;points=[];autosize=1;strokeColor=none;fillColor=none;fontSize=12;fontFamily=Helvetica;fontColor=rgb(0, 0, 0);" vertex="1" parent="mb-uH8kiBHIfrfxMW9q3-28">
          <mxGeometry x="520" y="20" width="60" height="30" as="geometry" />
        </mxCell>
        <mxCell id="FrHnQ4htE1Mah1qKq04Q-61" value="&lt;b&gt;ACM &lt;br&gt;(AWS Certificate Manager)&lt;/b&gt;" style="sketch=0;points=[[0,0,0],[0.25,0,0],[0.5,0,0],[0.75,0,0],[1,0,0],[0,1,0],[0.25,1,0],[0.5,1,0],[0.75,1,0],[1,1,0],[0,0.25,0],[0,0.5,0],[0,0.75,0],[1,0.25,0],[1,0.5,0],[1,0.75,0]];outlineConnect=0;fontColor=#232F3E;gradientColor=#F54749;gradientDirection=north;fillColor=#C7131F;strokeColor=#ffffff;dashed=0;verticalLabelPosition=bottom;verticalAlign=top;align=center;html=1;fontSize=12;fontStyle=0;aspect=fixed;shape=mxgraph.aws4.resourceIcon;resIcon=mxgraph.aws4.certificate_manager_3;shadow=0;fontFamily=Helvetica;" vertex="1" parent="mb-uH8kiBHIfrfxMW9q3-28">
          <mxGeometry x="-40" y="150" width="50" height="50" as="geometry" />
        </mxCell>
        <mxCell id="FrHnQ4htE1Mah1qKq04Q-62" value="&lt;b&gt;Route53&lt;/b&gt;" style="sketch=0;points=[[0,0,0],[0.25,0,0],[0.5,0,0],[0.75,0,0],[1,0,0],[0,1,0],[0.25,1,0],[0.5,1,0],[0.75,1,0],[1,1,0],[0,0.25,0],[0,0.5,0],[0,0.75,0],[1,0.25,0],[1,0.5,0],[1,0.75,0]];outlineConnect=0;fontColor=#232F3E;gradientColor=#945DF2;gradientDirection=north;fillColor=#5A30B5;strokeColor=#ffffff;dashed=0;verticalLabelPosition=bottom;verticalAlign=top;align=center;html=1;fontSize=12;fontStyle=0;aspect=fixed;shape=mxgraph.aws4.resourceIcon;resIcon=mxgraph.aws4.route_53;shadow=0;fontFamily=Helvetica;" vertex="1" parent="mb-uH8kiBHIfrfxMW9q3-28">
          <mxGeometry x="310" y="-20" width="50" height="50" as="geometry" />
        </mxCell>
        <mxCell id="FrHnQ4htE1Mah1qKq04Q-63" value="&lt;b&gt;CloudFront&lt;/b&gt;" style="sketch=0;points=[[0,0,0],[0.25,0,0],[0.5,0,0],[0.75,0,0],[1,0,0],[0,1,0],[0.25,1,0],[0.5,1,0],[0.75,1,0],[1,1,0],[0,0.25,0],[0,0.5,0],[0,0.75,0],[1,0.25,0],[1,0.5,0],[1,0.75,0]];outlineConnect=0;fontColor=#232F3E;gradientColor=#945DF2;gradientDirection=north;fillColor=#5A30B5;strokeColor=#ffffff;dashed=0;verticalLabelPosition=bottom;verticalAlign=top;align=center;html=1;fontSize=12;fontStyle=0;aspect=fixed;shape=mxgraph.aws4.resourceIcon;resIcon=mxgraph.aws4.cloudfront;shadow=0;fontFamily=Helvetica;" vertex="1" parent="mb-uH8kiBHIfrfxMW9q3-28">
          <mxGeometry x="140" y="-70" width="50" height="50" as="geometry" />
        </mxCell>
      </root>
    </mxGraphModel>
  </diagram>
</mxfile>
